<svg id="Слой_1" data-name="Слой 1" xmlns="http://www.w3.org/2000/svg" viewBox="0 0 609 143"><defs><style>.cls-1{fill:#fefefe;}.cls-2{fill:#003c31;}.cls-3{fill:#9f552c;}.cls-4{fill:#013c31;}.cls-5{fill:#013d32;}.cls-6{fill:#033e33;}.cls-7{fill:#023d32;}.cls-8{fill:#054035;}.cls-9{fill:#11493e;}.cls-10{fill:#064136;}.cls-11{fill:#023e33;}.cls-12{fill:#084237;}.cls-13{fill:#074137;}.cls-14{fill:#0f473d;}</style></defs><path class="cls-1" d="M0,143V0H609V143ZM94,31.83c0-1.9,0-3.38,0-4.87.39-9.37-3.47-16.65-11.63-21-8.89-4.76-18-4.94-26.79.8-3.85,2.51-7.6,6.14-11.83,6.93C30.64,16.11,24.32,27.32,26.21,37.5c.75,4-.82,5.69-3.05,7.75C11.08,56.36,11.48,70.81,13.76,85c1.61,10.07,8.51,17.68,17.51,22.71,5.08,2.84,10.41,5.46,17.86,5.19-2.68-3.57-4.73-6.17-6.64-8.88-2.71-3.84-1.58-7.16,1.89-9.73,3.18-2.37,8-1.57,10.73,1.31s5.74,5.86,8.61,8.8c4.64,4.75,4.54,4.65,9.29.15s9.81-9.29,15.09-13.46c3.22-2.53,5.81,0,8,2.44,2.64,2.87,3,5.76.15,8.67s-6,5.9-8.91,9a4,4,0,0,0-1.18,2.94,3.32,3.32,0,0,0,2.43,1.83c17.74,2.24,33.63-9.69,34.39-28.39.4-10.09-3.45-18.35-10.87-24.89C119.33,49.91,110,32.19,94,31.83ZM75,137.92c0-4.55.26-8.69-.07-12.8a10.3,10.3,0,0,1,3.86-9.52c4.91-4.17,9.42-8.79,14.22-13.09,2.88-2.57,3.18-6.64,1.13-8.25-1.8-1.43-6.18-.65-8.88.46-2.2.9-3.51,3.84-5.39,5.68C76,104.17,72,107.81,68.07,111.5c-5.09-5.08-9.53-9.35-13.76-13.81-2.55-2.69-7.55-4-9.34-1.58-2.11,2.87-1.67,6,1.23,8.66,2.47,2.23,4.51,5,7.14,7,6.24,4.71,8.95,10.62,7.7,18.43-.4,2.52-.06,5.15-.06,7.75ZM388.4,90.57c1.27-7.78.16-14.64-4.42-21-3-4.15-5.17-8.89-7.86-13.27-1.16-1.9-2.53-4.88-4.1-5.09-5-.66-10.15-.24-15.24-.24,1.42,3.2,3.23,4.63,4.34,6.49,5.52,9.23,11.17,18.4,16.12,27.94C379.83,90.4,383,92.12,388.4,90.57ZM150.27,14.1V125.77h4.62V14.1ZM332.2,51.61c1.34,2.08,3.12,3.55,3,4.9-.71,11.23,2.48,22.75-2.17,33.92h17.3a84.17,84.17,0,0,1,0-38.82ZM502.94,90.43c-1-3.87-2.29-6.85-2.37-9.86-.28-9.75-.11-19.52-.11-28.92H484c4.58,5.2,4.69,31.78,0,39.48C491.21,90.45,497.65,92,502.94,90.43ZM283.24,51.21h-13c0,9,0,17.84,0,26.64,0,4.22,1.32,8.85-3.62,11.68,5,2.4,17.87,1.93,19.28-.25-1.2-2.58-2.46-5.28-2.53-8C283.09,71.33,283.24,61.36,283.24,51.21ZM473.91,90.55l-1.26-1.38c-.78-2.36-2.18-4.7-2.24-7.07-.25-10.27-.11-20.55-.11-30.82h-13c0,8.3.18,16.28-.06,24.25-.16,4.92,2.14,10.49-3.51,14.55A74.3,74.3,0,0,0,473.91,90.55ZM305.24,51.15c0,8.85.09,17.32,0,25.79-.07,4.49,1.61,9.49-3.68,12.64C307,92,319.66,91.41,321,89.13c-1.24-2.4-2.54-4.91-2.6-7.44-.24-10.11-.1-20.23-.1-30.54Zm220.59.3c4.8,5.34,4.91,31.87.68,39h15.67v-39Zm34.76,38.84h16.55V51.73H561C565.73,56.74,565.77,85.1,560.59,90.29ZM221.12,51.63c.69,3.37,1.65,6.14,1.76,8.95.25,6.15,0,12.32.09,18.48.06,7.08,3.5,11.07,10.5,12.24,1.75.3,3.53.39,5.7.61-.07-1.36.29-3.07-.26-3.45-4.15-2.89-2.82-7.13-2.91-10.95-.14-5.66-.22-11.33,0-17,.13-2.82,1.08-5.6,1.77-8.9Zm282.7-.42c.8,4.55,3.38,9.63,1.92,12.92-2.9,6.53.55,12.07.45,18a12.88,12.88,0,0,0,1.09,5.78c2,4.08,5.89,4.82,9.81,3.68,3.31-1,6.36-2.78,5.67-7.73l-3.87,1.79c-.11-6.23,1.39-13.16-8.27-14.35,7.43-4,9.56-7.79,8-13S512,50.54,503.82,51.21Zm-302.8-1c-10.34.45-17.28,9.71-16.82,22.32.44,11.91,6.89,19,16.88,18.66C196.35,77.66,196.63,64.11,201,50.25ZM410.72,91.7c-2-13.85-3.23-27.7.84-41.53C401.1,52.1,395.42,59.48,395.27,71,395.13,82.3,400.47,89.44,410.72,91.7Zm1.29-20c7.22,6.64,3.83,13.36,1.47,20.67,3.73-1.17,6.59-1.62,8.95-3,1.93-1.09,4.19-3,4.66-5,1-4.13.9-8.52,1.25-12.76ZM243.26,51.41c7.5,4.85,5.63,11.24,5.77,17.13.07,3.32,0,6.66,0,10,0,3.93-1.19,7.08-5.13,8.9-1,.48-1.48,2.23-2.79,4.36,6.69-1.26,9.74-4.42,10.6-9.21.64-3.56.1-7.32.45-11,.66-6.72-2.89-14.36,5.91-20.22ZM362.1,62.17l-2,.36c0,4.42.12,8.84,0,13.25-.17,4.87,2,10.36-3.33,14.59h11.42l1.21-1c-5.74-2.43-5.59-6.88-5.35-11.42a46.33,46.33,0,0,0,0-8A66.08,66.08,0,0,0,362.1,62.17Zm25.32,9.41c2.6-6.8-1.73-14.49,5.52-20.1H381.37l-1.06.86c6.35,2.94,4.77,8.22,5.14,13C385.62,67.47,386.74,69.51,387.42,71.58ZM215.62,50c-2.69.72-4.29,1.5-5.88,1.5-1.83,0-3.66-.69-6.41-1.28L214.94,66.5C216.87,60.71,216,55.46,215.62,50ZM414.49,51l12.95,14.44V51ZM446,68.25H431.42v5.43H446Zm110.94,9.44L544.57,90.62h12.34Zm34.91.08-12.49,13h12.49Zm-35.35-26.6H544.15l12.32,12.14Zm35,11.84c.24-3.87.47-7.74.72-11.82H579ZM295.88,64.94l1.68.11,5.69-13.77h-7.37Zm152.05,0,1.68.12,5.69-13.77h-7.37Zm-187.15-.05,1.7.24c1.92-4.53,3.83-9.06,5.89-13.91h-7.59Zm290.5-1.82c-6.84,8.36-6.84,8.36,0,15.53Zm35,15.42V62.26C578.37,70.6,578.37,70.6,586.26,78.48ZM320.42,51.19c2.09,4.89,4,9.42,5.94,13.94l1.49-.37V51.19Zm-29.11,14,1.43-.3V51.18h-7.35Zm181.14-14,6,13.95,1.48-.38V51.18Zm-257.6,28L203.54,90.77C212.39,90.21,217.36,84.22,214.85,79.21Z"/><path class="cls-2" d="M94,31.83c16,.36,25.34,18.08,18.15,30.8,7.42,6.54,11.27,14.8,10.87,24.89-.76,18.7-16.65,30.63-34.39,28.39a3.32,3.32,0,0,1-2.43-1.83,4,4,0,0,1,1.18-2.94c2.89-3.07,6-6,8.91-9s2.49-5.8-.15-8.67c-2.22-2.42-4.81-5-8-2.44C82.82,95.23,77.91,99.89,73,104.52s-4.65,4.6-9.29-.15c-2.87-2.94-5.8-5.81-8.61-8.8s-7.55-3.68-10.73-1.31c-3.47,2.57-4.6,5.89-1.89,9.73,1.91,2.71,4,5.31,6.64,8.88-7.45.27-12.78-2.35-17.86-5.19-9-5-15.9-12.64-17.51-22.71-2.28-14.16-2.68-28.61,9.4-39.72,2.23-2.06,3.8-3.74,3.05-7.75-1.89-10.18,4.43-21.39,17.54-23.83,4.23-.79,8-4.42,11.83-6.93,8.8-5.74,17.9-5.56,26.79-.8,8.16,4.37,12,11.65,11.63,21C93.94,28.45,94,29.93,94,31.83Z"/><path class="cls-3" d="M75,137.92H61c0-2.6-.34-5.23.06-7.75,1.25-7.81-1.46-13.72-7.7-18.43-2.63-2-4.67-4.74-7.14-7C43.3,102.16,42.86,99,45,96.11c1.79-2.42,6.79-1.11,9.34,1.58,4.23,4.46,8.67,8.73,13.76,13.81,3.93-3.69,7.92-7.33,11.78-11.1,1.88-1.84,3.19-4.78,5.39-5.68,2.7-1.11,7.08-1.89,8.88-.46,2,1.61,1.75,5.68-1.13,8.25-4.8,4.3-9.31,8.92-14.22,13.09a10.3,10.3,0,0,0-3.86,9.52C75.24,129.23,75,133.37,75,137.92Z"/><path class="cls-4" d="M388.4,90.57c-5.38,1.55-8.57-.17-11.16-5.15-4.95-9.54-10.6-18.71-16.12-27.94-1.11-1.86-2.92-3.29-4.34-6.49,5.09,0,10.24-.42,15.24.24,1.57.21,2.94,3.19,4.1,5.09,2.69,4.38,4.87,9.12,7.86,13.27C388.56,75.93,389.67,82.79,388.4,90.57Z"/><path class="cls-2" d="M150.27,14.1h4.62V125.77h-4.62Z"/><path class="cls-5" d="M332.2,51.61h18.12a84.17,84.17,0,0,0,0,38.82h-17.3c4.65-11.17,1.46-22.69,2.17-33.92C335.32,55.16,333.54,53.69,332.2,51.61Z"/><path class="cls-5" d="M502.94,90.43c-5.29,1.61-11.73,0-18.9.7,4.69-7.7,4.58-34.28,0-39.48h16.42c0,9.4-.17,19.17.11,28.92C500.65,83.58,502,86.56,502.94,90.43Z"/><path class="cls-4" d="M283.24,51.21c0,10.15-.15,20.12.1,30.07.07,2.72,1.33,5.42,2.53,8-1.41,2.18-14.33,2.65-19.28.25,4.94-2.83,3.6-7.46,3.62-11.68.06-8.8,0-17.59,0-26.64Z"/><path class="cls-4" d="M473.91,90.55a74.3,74.3,0,0,1-20.19-.47c5.65-4.06,3.35-9.63,3.51-14.55.24-8,.06-16,.06-24.25h13c0,10.27-.14,20.55.11,30.82.06,2.37,1.46,4.71,2.24,7.07Z"/><path class="cls-4" d="M305.24,51.15h13c0,10.31-.14,20.43.1,30.54.06,2.53,1.36,5,2.6,7.44-1.29,2.28-14,2.85-19.42.45,5.29-3.15,3.61-8.15,3.68-12.64C305.33,68.47,305.24,60,305.24,51.15Z"/><path class="cls-5" d="M525.83,51.45h16.35c0,12.87,0,25.93,0,39H526.51C530.74,83.32,530.63,56.79,525.83,51.45Z"/><path class="cls-6" d="M560.59,90.29c5.18-5.19,5.14-33.55.39-38.56h16.16V90.29Z"/><path class="cls-2" d="M221.12,51.63h16.69c-.69,3.3-1.64,6.08-1.77,8.9-.26,5.65-.18,11.32,0,17,.09,3.82-1.24,8.06,2.91,10.95.55.38.19,2.09.26,3.45-2.17-.22-3.95-.31-5.7-.61-7-1.17-10.44-5.16-10.5-12.24-.06-6.16.16-12.33-.09-18.48C222.77,57.77,221.81,55,221.12,51.63Z"/><path class="cls-4" d="M503.82,51.21c8.16-.67,13.23,1.68,14.82,7.08s-.59,9.08-8,13c9.66,1.19,8.16,8.12,8.27,14.35l3.87-1.79c.69,5-2.36,6.77-5.67,7.73-3.92,1.14-7.78.4-9.81-3.68a12.88,12.88,0,0,1-1.09-5.78c.1-6-3.35-11.5-.45-18C507.2,60.84,504.62,55.76,503.82,51.21Z"/><path class="cls-4" d="M201,50.25c-4.39,13.86-4.67,27.41.06,41-10,.33-16.44-6.75-16.88-18.66C183.74,60,190.68,50.7,201,50.25Z"/><path class="cls-4" d="M410.72,91.7c-10.25-2.26-15.59-9.4-15.45-20.66.15-11.56,5.83-18.94,16.29-20.87C407.49,64,408.7,77.85,410.72,91.7Z"/><path class="cls-5" d="M412,71.67h16.33c-.35,4.24-.26,8.63-1.25,12.76-.47,1.95-2.73,3.87-4.66,5-2.36,1.33-5.22,1.78-8.95,3C415.84,85,419.23,78.31,412,71.67Z"/><path class="cls-7" d="M243.26,51.41h14.82c-8.8,5.86-5.25,13.5-5.91,20.22-.35,3.63.19,7.39-.45,11-.86,4.79-3.91,8-10.6,9.21,1.31-2.13,1.76-3.88,2.79-4.36,3.94-1.82,5.11-5,5.13-8.9,0-3.33.06-6.67,0-10C248.89,62.65,250.76,56.26,243.26,51.41Z"/><path class="cls-8" d="M362.1,62.17A66.08,66.08,0,0,1,364,69.92a46.33,46.33,0,0,1,0,8c-.24,4.54-.39,9,5.35,11.42l-1.21,1H356.71c5.31-4.23,3.16-9.72,3.33-14.59.15-4.41,0-8.83,0-13.25Z"/><path class="cls-9" d="M387.42,71.58c-.68-2.07-1.8-4.11-2-6.22-.37-4.8,1.21-10.08-5.14-13l1.06-.86h11.57C385.69,57.09,390,64.78,387.42,71.58Z"/><path class="cls-6" d="M215.62,50c.39,5.42,1.25,10.67-.68,16.46L203.33,50.26c2.75.59,4.58,1.28,6.41,1.28C211.33,51.54,212.93,50.76,215.62,50Z"/><path class="cls-10" d="M414.49,51h12.95V65.42Z"/><path class="cls-4" d="M446,68.25v5.43H431.42V68.25Z"/><path class="cls-11" d="M556.91,77.69V90.62H544.57Z"/><path class="cls-11" d="M591.82,77.77v13H579.33Z"/><path class="cls-12" d="M556.47,51.17V63.31L544.15,51.17Z"/><path class="cls-12" d="M591.44,63,579,51.19h13.13C591.91,55.27,591.68,59.14,591.44,63Z"/><path class="cls-13" d="M295.88,64.94V51.28h7.37l-5.69,13.77Z"/><path class="cls-13" d="M447.93,64.93V51.28h7.37l-5.69,13.77Z"/><path class="cls-13" d="M260.78,64.88V51.21h7.59c-2.06,4.85-4,9.38-5.89,13.91Z"/><path class="cls-14" d="M551.28,63.06V78.59C544.44,71.42,544.44,71.42,551.28,63.06Z"/><path class="cls-14" d="M586.26,78.48c-7.89-7.88-7.89-7.88,0-16.22Z"/><path class="cls-6" d="M320.42,51.19h7.43V64.76l-1.49.37C324.44,60.61,322.51,56.08,320.42,51.19Z"/><path class="cls-6" d="M291.31,65.14l-5.92-14h7.35V64.84Z"/><path class="cls-6" d="M472.45,51.18h7.47V64.75l-1.48.38Z"/><path class="cls-12" d="M214.85,79.21c2.51,5-2.46,11-11.31,11.56Z"/></svg>