<?xml version="1.0" standalone="no"?>
<!DOCTYPE svg PUBLIC "-//W3C//DTD SVG 20010904//EN"
 "http://www.w3.org/TR/2001/REC-SVG-20010904/DTD/svg10.dtd">
<svg version="1.0" xmlns="http://www.w3.org/2000/svg"
 width="655.000000pt" height="167.000000pt" viewBox="0 0 655.000000 167.000000"
 preserveAspectRatio="xMidYMid meet">

<g transform="translate(0.000000,167.000000) scale(0.100000,-0.100000)"
fill="#000000" stroke="none">
<path d="M520 1517 c-19 -6 -54 -31 -78 -54 -32 -33 -50 -43 -74 -43 -53 0
-117 -38 -150 -89 -26 -42 -29 -53 -26 -118 l2 -71 -47 -51 c-143 -153 -138
-378 13 -529 45 -44 123 -87 180 -99 l35 -6 -32 37 c-57 64 -38 142 38 161 37
9 73 -12 149 -89 l64 -66 92 90 c80 79 96 90 126 90 67 0 115 -68 88 -122 -7
-13 -35 -46 -63 -75 -57 -59 -52 -70 29 -59 104 14 189 73 230 161 53 113 37
224 -47 320 -28 32 -30 38 -20 66 40 116 -36 243 -156 262 l-38 6 0 64 c0 54
-5 72 -30 113 -17 26 -50 62 -73 78 -36 26 -54 31 -110 33 -37 1 -83 -3 -102
-10z"/>
<path d="M1425 1418 c-3 -7 -4 -258 -3 -558 3 -477 5 -545 18 -545 13 0 15 68
15 554 0 434 -3 555 -12 558 -7 3 -15 -1 -18 -9z"/>
<path d="M1876 1028 c-59 -16 -131 -92 -144 -152 -25 -120 44 -222 169 -248
98 -20 219 33 219 97 0 34 -14 38 -52 15 -87 -53 -179 -1 -194 111 -5 36 -2
49 16 72 35 45 74 38 131 -24 40 -44 51 -51 73 -45 30 7 41 40 33 92 -7 45
-23 64 -52 64 -12 0 -42 7 -65 15 -48 17 -78 18 -134 3z"/>
<path d="M2185 1031 c-37 -8 -44 -36 -16 -62 19 -18 21 -31 21 -130 0 -130 11
-159 73 -191 32 -17 60 -22 117 -22 89 -1 143 21 177 73 21 30 23 46 23 148 0
101 2 115 20 130 27 24 25 42 -6 53 -50 19 -144 6 -144 -21 0 -6 11 -20 25
-31 24 -18 25 -25 25 -119 0 -93 -2 -102 -25 -124 -48 -49 -144 -17 -146 47
-4 121 3 174 22 190 45 38 7 66 -91 66 -25 0 -58 -3 -75 -7z"/>
<path d="M2680 1032 c-16 -6 -50 -78 -50 -105 0 -26 17 -47 38 -47 8 0 30 17
49 37 28 31 36 35 43 23 11 -18 12 -78 3 -173 -5 -59 -9 -70 -30 -80 -26 -12
-30 -29 -9 -46 19 -16 143 -25 185 -14 19 5 39 17 45 26 9 14 6 21 -17 40
l-28 22 3 114 c3 124 14 147 45 92 20 -36 56 -49 79 -31 11 10 18 10 26 2 20
-20 39 -13 75 25 28 31 36 35 43 23 11 -18 12 -78 3 -173 -5 -59 -9 -70 -30
-80 -26 -12 -30 -29 -9 -46 19 -16 143 -25 185 -14 19 5 39 17 45 26 9 14 6
21 -17 40 l-28 22 3 114 c3 124 14 147 45 92 20 -35 56 -49 78 -31 22 18 18
72 -7 110 l-23 33 -160 -1 c-88 -1 -163 -1 -167 -2 -4 0 -16 -16 -26 -36 l-18
-35 -24 37 -25 37 -157 1 c-87 1 -163 -1 -168 -2z"/>
<path d="M3534 1031 c-60 -15 -71 -37 -31 -64 21 -14 22 -20 21 -141 -1 -118
-2 -128 -23 -148 -21 -18 -21 -22 -7 -36 32 -33 188 -25 210 11 9 15 6 21 -14
37 -24 18 -25 23 -25 139 0 110 2 121 23 143 12 14 22 29 22 36 0 25 -108 39
-176 23z"/>
<path d="M3753 1030 c-30 -12 -29 -33 2 -64 24 -24 25 -30 25 -145 0 -110 -2
-122 -20 -133 -64 -40 42 -90 124 -58 32 12 34 45 6 60 -18 10 -21 19 -18 67
2 31 8 58 14 60 6 2 60 -41 120 -97 60 -55 114 -100 121 -100 23 0 28 27 33
182 5 149 6 158 28 173 46 33 12 65 -69 65 -72 0 -99 -29 -59 -65 23 -21 29
-105 8 -105 -7 0 -55 39 -106 85 -89 82 -94 85 -140 84 -26 0 -57 -4 -69 -9z"/>
<path d="M4384 1031 c-80 -20 -144 -90 -158 -171 -9 -54 17 -130 61 -173 37
-37 109 -67 162 -67 81 0 150 45 176 114 10 27 25 46 37 49 34 9 17 40 -27 50
-52 11 -155 1 -173 -17 -19 -19 -7 -36 24 -36 22 0 25 -4 22 -26 -4 -39 -31
-53 -65 -34 -67 38 -93 171 -44 224 39 41 82 34 139 -24 49 -48 92 -36 92 26
0 47 -30 79 -77 80 -21 1 -60 4 -88 7 -27 3 -64 2 -81 -2z"/>
<path d="M4880 1032 c-16 -6 -50 -78 -50 -105 0 -26 17 -47 38 -47 8 0 30 17
49 37 28 31 36 35 43 23 11 -18 12 -78 3 -173 -5 -59 -9 -70 -30 -80 -26 -12
-30 -29 -9 -46 19 -16 143 -25 185 -14 19 5 39 17 45 26 9 14 6 21 -17 40
l-28 22 3 114 c3 124 14 147 45 92 20 -35 56 -49 78 -31 22 18 18 72 -7 110
l-23 33 -157 1 c-87 1 -163 -1 -168 -2z"/>
<path d="M5380 1031 c-52 -3 -101 -10 -107 -14 -19 -12 -16 -35 7 -47 18 -10
20 -21 20 -135 0 -112 -2 -127 -20 -145 -11 -11 -20 -26 -20 -34 0 -29 112
-46 180 -27 29 8 39 40 16 53 -21 12 -23 118 -3 118 23 0 44 -32 56 -86 7 -29
21 -61 32 -72 37 -40 138 -39 163 1 9 14 7 21 -11 35 -12 10 -25 34 -29 57 -5
27 -18 51 -42 74 -32 30 -34 34 -18 43 24 14 46 69 39 99 -13 52 -77 92 -143
87 -14 -1 -68 -4 -120 -7z m110 -70 c23 -43 2 -101 -36 -101 -21 0 -27 24 -20
75 6 35 11 45 26 45 11 0 24 -9 30 -19z"/>
<path d="M5890 1030 c-148 -5 -155 -6 -158 -26 -2 -14 3 -23 17 -27 25 -6 35
-67 29 -189 -4 -80 -7 -93 -27 -109 -14 -11 -21 -25 -17 -34 4 -12 33 -15 166
-17 88 -1 168 -2 177 -2 23 -1 58 82 49 118 -9 36 -23 33 -67 -15 -35 -38 -39
-40 -90 -37 l-54 3 -3 58 c-3 56 -2 58 20 55 13 -2 28 -15 36 -30 25 -54 55
-21 56 61 1 84 -34 122 -56 60 -8 -25 -15 -30 -37 -27 -21 2 -27 9 -29 36 -5
46 12 62 63 62 32 0 52 -7 73 -25 36 -30 48 -31 62 -5 20 37 -16 108 -48 98
-4 -1 -77 -5 -162 -8z"/>
<path d="M6300 1030 c-148 -5 -155 -6 -158 -26 -2 -14 3 -23 17 -27 25 -6 35
-67 29 -189 -4 -80 -7 -93 -27 -109 -14 -11 -21 -25 -17 -34 4 -12 33 -15 166
-17 88 -1 168 -2 177 -2 23 -1 58 82 49 118 -9 36 -23 33 -67 -15 -35 -38 -39
-40 -90 -37 l-54 3 -3 58 c-3 56 -2 58 20 55 13 -2 28 -15 36 -30 25 -54 55
-21 56 61 1 84 -34 122 -56 60 -8 -25 -15 -30 -37 -27 -21 2 -27 9 -29 36 -5
46 12 62 63 62 32 0 52 -7 73 -25 36 -30 48 -31 62 -5 20 37 -16 108 -48 98
-4 -1 -77 -5 -162 -8z"/>
<path d="M4704 805 c-25 -61 -22 -65 57 -65 l70 0 15 35 c25 61 22 65 -57 65
l-70 0 -15 -35z"/>
<path d="M700 535 c-52 -52 -102 -95 -110 -95 -9 0 -49 36 -88 79 -75 83 -103
101 -127 81 -28 -23 -15 -48 70 -129 l85 -81 0 -100 0 -100 60 0 60 0 0 99 0
99 95 88 c98 90 115 115 95 139 -23 28 -46 15 -140 -80z"/>
</g>
</svg>
